<svg width="22" height="22" fill="none" version="1.1" xmlns="http://www.w3.org/2000/svg">
 <path d="m11.175702 18.95748a5.0078171 5.0299006 0 0 1-3.5678701-1.157038c-0.7999707 1.044548-3.3438779 1.848047-3.4558738 0.457995 0-1.044548-0.2319915-1.912327-0.4799824-2.876525-0.3199883-1.181143-0.6719755-2.490845-0.6719755-4.403172 0-4.5558363 3.7198642-7.9787399 8.1357028-7.9787399a7.887712 7.9224952 0 0 1 7.863712 8.0189149 7.8717126 7.9064253 0 0 1-7.823713 7.938565zm0.064-12.020337c-2.1439213-0.1124898-3.8238601 1.382017-4.1918466 3.7201982-0.3039889 1.936432 0.2399912 4.298717 0.7039743 4.419241 0.2159921 0.05625 0.7759716-0.401748 1.1199591-0.747252 0.5679793 0.369608 1.2159552 0.658868 1.9439292 0.699043a4.079851 4.0978423 0 0 0 4.271843-3.832688 4.0878507 4.1058773 0 0 0-3.847859-4.2585422z" style="fill:#fcfcfc"/>
</svg>
