<svg width="22" height="22" fill="none" version="1.1" xmlns="http://www.w3.org/2000/svg">
 <path d="m11.134766 3c-4.415839 0-8.134766 3.4226793-8.134766 7.978516 0 1.912327 0.3518867 3.223153 0.671875 4.404296 0.2479909 0.964198 0.4804688 1.830453 0.4804688 2.875 0.1119959 1.390053 2.6551074 0.587517 3.4550781-0.457031a5.0078171 5.0299006 0 0 0 3.5683591 1.15625 7.8717126 7.9064253 0 0 0 7.824219-7.9375 7.887712 7.9224952 0 0 0-0.683594-3.3242185 3 3 0 0 1-1.316406 0.3046875 3 3 0 0 1-3-3 3 3 0 0 1 0.306641-1.3203125 7.887712 7.9224952 0 0 0-3.171875-0.6796875zm-0.291016 3.9355469c0.130163-0.0053377 0.262489-0.0050775 0.396484 0.0019531a4.0878507 4.1058773 0 0 1 3.847657 4.257812 4.079851 4.0978423 0 0 1-4.271485 3.833985c-0.727974-0.040175-1.377333-0.329611-1.9453122-0.699219-0.3439876 0.345504-0.9031486 0.802344-1.1191407 0.746094-0.4639831-0.120524-1.0071139-2.481537-0.703125-4.417969 0.3449874-2.1920448 1.842474-3.6425908 3.7949219-3.7226561z" style="fill:#fcfcfc"/>
 <circle cx="17" cy="5" r="2" style="fill:#3daee9"/>
</svg>
